<svg width="25" height="18" viewBox="0 0 25 18" fill="none" xmlns="http://www.w3.org/2000/svg">
<path d="M23.2628 6.69626L22.743 6.16118L20.9185 1.38019C20.6076 0.572622 19.8126 0.0375472 18.9258 0.0325928H5.89451C5.00775 0.0325928 4.21272 0.572622 3.90184 1.38019L2.10284 6.10173L1.35368 6.77553C0.701347 7.31556 0.324219 8.10826 0.324219 8.9406V15.9065C0.329315 17.046 1.28233 17.9675 2.45449 17.9675H3.79992C4.97207 17.9675 5.92509 17.046 5.93018 15.9065V14.8958H18.5691V15.9065C18.5742 17.046 19.5272 17.9675 20.6994 17.9675H22.0448C23.2169 17.9675 24.17 17.046 24.175 15.9065V8.75729C24.17 7.97944 23.8438 7.23629 23.2628 6.69626ZM4.85995 1.71709C5.02304 1.29596 5.43584 1.02347 5.89451 1.02347H18.9309C19.3896 1.02347 19.8024 1.30092 19.9655 1.71709L21.5555 5.87878H20.3681C20.0878 4.02088 18.3092 2.73769 16.398 3.01514C14.8742 3.23313 13.6766 4.39742 13.4524 5.87878H3.2699L4.85995 1.71709ZM19.3284 5.87878H14.4818C14.7621 4.57577 16.077 3.74344 17.4173 4.01593C18.3754 4.2141 19.1246 4.9424 19.3284 5.87878ZM4.91092 15.9065C4.90582 16.501 4.41148 16.9766 3.79992 16.9766H2.45449C1.84293 16.9766 1.34858 16.501 1.34348 15.9065V14.6084C1.64926 14.8016 2.05187 14.8958 2.45449 14.8958H4.91092V15.9065ZM23.1558 15.9065C23.1507 16.501 22.6563 16.9766 22.0448 16.9766H20.6994C20.0878 16.9766 19.5934 16.4961 19.5884 15.9065V14.8958H22.0448C22.4474 14.8958 22.85 14.8016 23.1558 14.6084V15.9065ZM22.0448 13.9049H2.45449C1.84802 13.9099 1.34858 13.4392 1.34348 12.8447V8.9406C1.34348 8.39561 1.59321 7.8754 2.0213 7.52364C2.02639 7.51869 2.03659 7.50878 2.04168 7.50382L2.73478 6.86966H22.0346L22.5238 7.37996C22.5289 7.38987 22.5442 7.39483 22.5493 7.40474C22.9315 7.7565 23.1507 8.24698 23.1507 8.75729V12.8447H23.1558C23.1507 13.4342 22.6512 13.9099 22.0448 13.9049Z" fill="#3330E8"/>
<path d="M7.05258 8.85132H3.23034C2.95004 8.85132 2.7207 9.07427 2.7207 9.34676V11.923C2.7207 12.1955 2.95004 12.4185 3.23034 12.4185H7.05258C7.33288 12.4185 7.56222 12.1955 7.56222 11.923V9.34676C7.56222 9.07427 7.33288 8.85132 7.05258 8.85132ZM6.54295 11.4276H3.73997V9.8422H6.54295V11.4276Z" fill="#3330E8"/>
<path d="M21.2733 8.85107H17.451C17.1707 8.85107 16.9414 9.07402 16.9414 9.34651V11.9228C16.9414 12.1953 17.1707 12.4182 17.451 12.4182H21.2733C21.5536 12.4182 21.7829 12.1953 21.7829 11.9228V9.34651C21.7829 9.07402 21.5536 8.85107 21.2733 8.85107ZM20.7637 11.4274H17.9607V9.84195H20.7637V11.4274Z" fill="#3330E8"/>
<path d="M14.71 10.9321H9.78698C9.50668 10.9321 9.27734 11.1551 9.27734 11.4276C9.27734 11.7001 9.50668 11.923 9.78698 11.923H14.71C14.9903 11.923 15.2197 11.7001 15.2197 11.4276C15.2197 11.1551 14.9903 10.9321 14.71 10.9321Z" fill="#3330E8"/>
<path d="M14.71 9.39661H9.78698C9.50668 9.39661 9.27734 9.61955 9.27734 9.89205C9.27734 10.1645 9.50668 10.3875 9.78698 10.3875H14.71C14.9903 10.3875 15.2197 10.1645 15.2197 9.89205C15.2197 9.61955 14.9903 9.39661 14.71 9.39661Z" fill="#3330E8"/>
</svg>
