<svg width="20" height="20" viewBox="0 0 20 20" fill="none" xmlns="http://www.w3.org/2000/svg">
<g clip-path="url(#clip0_486_1754)">
<path fill-rule="evenodd" clip-rule="evenodd" d="M13.7439 15.5793H12.8923V14.9151H13.7439V15.5793ZM13.8706 14.3459H12.7676C12.522 14.3459 12.324 14.5451 12.324 14.7893V15.7048C12.324 15.949 12.522 16.1482 12.7676 16.1482H13.8706C14.1142 16.1482 14.3142 15.949 14.3142 15.7048V14.7893C14.3142 14.5451 14.1142 14.3459 13.8706 14.3459ZM6.91563 15.5793H6.06406V14.9151H6.91563V15.5793ZM7.04039 14.3459H5.93734C5.69375 14.3459 5.49375 14.5451 5.49375 14.7893V15.7048C5.49375 15.949 5.69375 16.1482 5.93734 16.1482H7.04039C7.28594 16.1482 7.48398 15.949 7.48398 15.7048V14.7893C7.48398 14.5451 7.28594 14.3459 7.04039 14.3459ZM10.9258 15.3903H8.88211V15.1038H10.9258V15.3903ZM11.0704 14.5348H8.73754C8.50387 14.5348 8.31375 14.725 8.31375 14.9586V15.5357C8.31375 15.7692 8.50387 15.9593 8.73754 15.9593H11.0704C11.3041 15.9593 11.4942 15.7692 11.4942 15.5357V14.9586C11.4942 14.725 11.3041 14.5348 11.0704 14.5348ZM18.4551 18.4074V8.41714C18.4551 7.71233 17.9679 7.13901 17.3679 7.13901H2.6341C2.03605 7.13901 1.54887 7.71233 1.54887 8.41714V18.4074C1.54887 18.4866 1.59641 18.5391 1.63008 18.5391H2.26973C2.30141 18.5391 2.3509 18.4866 2.3509 18.4074V9.06808C2.3509 8.55218 2.73312 8.13276 3.20641 8.13276H16.7975C17.2689 8.13276 17.653 8.55222 17.653 9.06808V18.4074C17.653 18.4866 17.7025 18.5391 17.7342 18.5391H18.3739C18.4056 18.5391 18.4551 18.4866 18.4551 18.4074ZM17.3679 6.57007H2.6341C1.72117 6.57007 0.978516 7.39866 0.978516 8.41714V18.4074C0.978516 18.794 1.2716 19.108 1.63004 19.108H2.26969C2.62813 19.108 2.91926 18.794 2.91926 18.4074V9.06808C2.91926 8.86944 3.04996 8.70171 3.20641 8.70171H16.7975C16.952 8.70171 17.0847 8.86944 17.0847 9.06808V18.4074C17.0847 18.794 17.3758 19.108 17.7343 19.108H18.3739C18.7323 19.108 19.0235 18.794 19.0235 18.4074V8.41714C19.0235 7.39866 18.2809 6.57007 17.3679 6.57007ZM15.2311 12.216H14.3004L13.9855 11.8311H15.2311C15.3361 11.8311 15.4232 11.919 15.4232 12.0234C15.4232 12.1278 15.3361 12.216 15.2311 12.216ZM15.0885 14.1396C15.0885 14.1053 15.0806 14.0758 15.0469 14.0348L14.7696 13.6926H5.03824L4.76098 14.0348C4.7273 14.0758 4.71937 14.1053 4.71937 14.1396V16.4796C4.71937 16.5903 4.85207 16.6877 5.00258 16.6877H14.8053C14.9558 16.6877 15.0885 16.5903 15.0885 16.4796V14.1396ZM13.9597 17.9765C13.9597 18.0125 13.93 18.0428 13.8944 18.0428H12.4012C12.3655 18.0428 12.3338 18.0125 12.3338 17.9765V17.2568H13.9597L13.9597 17.9765ZM7.4741 17.9765C7.4741 18.0125 7.44242 18.0428 7.40676 18.0428H5.91355C5.87789 18.0428 5.8482 18.0125 5.8482 17.9765V17.2568H7.47406V17.9765H7.4741ZM4.57684 12.216C4.47187 12.216 4.38473 12.1277 4.38473 12.0233C4.38473 11.919 4.47187 11.831 4.57684 11.831H5.82246L5.50758 12.216H4.57684V12.216ZM7.04238 11.2336C7.3632 10.8387 7.85234 10.6212 8.41871 10.6212H11.3893C11.9556 10.6212 12.4428 10.8387 12.7656 11.2336L14.3043 13.1236H5.50164L7.04238 11.2336ZM15.2311 11.2619H13.5221L13.2072 10.8744C12.7755 10.344 12.1299 10.0523 11.3892 10.0523H8.41867C7.67805 10.0523 7.03242 10.344 6.6007 10.8744L6.28582 11.2619H4.57676C4.15691 11.2619 3.81629 11.6035 3.81629 12.0233C3.81629 12.4434 4.15691 12.7852 4.57676 12.7852H5.04414L4.31934 13.6751C4.20645 13.8124 4.15102 13.9684 4.15102 14.1396V16.4796C4.15102 16.9081 4.5332 17.2568 5.00258 17.2568H5.27785V17.9765C5.27785 18.327 5.56301 18.6118 5.91355 18.6118H7.40676C7.75727 18.6118 8.04246 18.327 8.04246 17.9765V17.2568H11.7655V17.9765C11.7655 18.327 12.0507 18.6118 12.4012 18.6118H13.8944C14.2449 18.6118 14.5301 18.327 14.5301 17.9765V17.2568H14.8054C15.2747 17.2568 15.657 16.9081 15.657 16.4796V14.1396C15.657 13.9685 15.5995 13.812 15.4886 13.6751L14.7638 12.7852H15.2312C15.6511 12.7852 15.9917 12.4434 15.9917 12.0233C15.9916 11.6035 15.6509 11.2619 15.2311 11.2619Z" fill="white"/>
<path fill-rule="evenodd" clip-rule="evenodd" d="M10.0017 4.60986C9.61953 4.60986 9.30859 4.92139 9.30859 5.30439C9.30859 5.68721 9.61949 5.99869 10.0017 5.99869C10.3859 5.99869 10.6968 5.68717 10.6968 5.30439C10.6968 4.92139 10.3859 4.60986 10.0017 4.60986ZM9.87695 5.30439C9.87695 5.13775 10.1284 5.14068 10.1284 5.30439C10.1284 5.46787 9.87695 5.47084 9.87695 5.30439Z" fill="white"/>
<path fill-rule="evenodd" clip-rule="evenodd" d="M8.31337 4.1169C9.24415 3.18573 10.7591 3.18573 11.6899 4.1169C11.7453 4.17276 11.8186 4.20046 11.8918 4.20046C12.1408 4.20046 12.2715 3.89472 12.0918 3.71487C10.9393 2.56151 9.06388 2.56151 7.90935 3.71487C7.79845 3.82597 7.79845 4.00581 7.90935 4.1169C8.02028 4.22819 8.20048 4.22819 8.31337 4.1169Z" fill="white"/>
<path fill-rule="evenodd" clip-rule="evenodd" d="M6.86411 2.6683C8.59294 0.938066 11.409 0.938066 13.1399 2.6683C13.1953 2.72357 13.2686 2.75127 13.3399 2.75127C13.5943 2.75127 13.7199 2.44408 13.5418 2.26568C11.5892 0.313457 8.41274 0.313457 6.46013 2.26568C6.34923 2.37697 6.34923 2.55701 6.46013 2.6683C6.57302 2.779 6.75321 2.779 6.86411 2.6683Z" fill="white"/>
</g>
<defs>
<clipPath id="clip0_486_1754">
<rect width="20" height="20" fill="white"/>
</clipPath>
</defs>
</svg>
