<svg width="17" height="23" viewBox="0 0 17 23" fill="none" xmlns="http://www.w3.org/2000/svg">
<path d="M16.3237 7.92541C16.2675 5.84281 15.3951 3.86701 13.8967 2.42863C12.3983 0.990263 10.3955 0.205938 8.32466 0.246608C6.25557 0.200029 4.25194 0.977348 2.74982 2.40939C1.24771 3.84143 0.368697 5.81228 0.304098 7.89301C0.110831 11.6622 3.82584 17.1594 7.8737 22.5594C7.92634 22.6227 7.99198 22.6739 8.06611 22.7093C8.14025 22.7447 8.22112 22.7636 8.30318 22.7646C8.38563 22.7659 8.46726 22.748 8.54174 22.7124C8.61622 22.6769 8.68155 22.6245 8.73266 22.5594C12.7805 17.1594 16.5063 11.6622 16.3023 7.89301L16.3237 7.92541ZM8.31392 21.3714C4.59891 16.3602 1.19527 11.2518 1.3778 7.95781C1.42562 6.15595 2.1812 4.44653 3.47913 3.20373C4.77707 1.96093 6.51164 1.28597 8.30318 1.32661C10.0958 1.28594 11.8315 1.96055 13.1311 3.20306C14.4308 4.44558 15.1887 6.15498 15.2393 7.95781C15.4433 11.2518 12.1148 16.3602 8.31392 21.3714Z" fill="#3330E8"/>
<path d="M8.35642 3.82129C7.54688 3.82129 6.75554 4.0629 6.08258 4.51551C5.40962 4.96813 4.8853 5.61142 4.57599 6.36393C4.26669 7.11644 4.1863 7.94434 4.34502 8.74283C4.50374 9.54131 4.89442 10.2745 5.4676 10.8495C6.04078 11.4245 6.7707 11.8156 7.56494 11.9731C8.35919 12.1307 9.18205 12.0477 9.92936 11.7346C10.6767 11.4215 11.3148 10.8924 11.763 10.2143C12.2112 9.53619 12.4494 8.73958 12.4472 7.92529C12.4444 6.83585 12.0121 5.79201 11.2453 5.02267C10.4784 4.25332 9.43951 3.82129 8.35642 3.82129ZM8.35642 10.9601C7.75969 10.9601 7.17637 10.7821 6.68021 10.4486C6.18405 10.1152 5.79734 9.64119 5.56898 9.08666C5.34062 8.53212 5.28087 7.92192 5.39729 7.33323C5.5137 6.74454 5.80106 6.20379 6.223 5.77936C6.64495 5.35494 7.18255 5.0659 7.76781 4.9488C8.35307 4.8317 8.95971 4.8918 9.51101 5.1215C10.0623 5.3512 10.5335 5.74017 10.865 6.23924C11.1966 6.73832 11.3735 7.32506 11.3735 7.92529C11.3735 8.32382 11.2955 8.71846 11.1439 9.08666C10.9922 9.45486 10.77 9.78941 10.4898 10.0712C10.2097 10.353 9.87707 10.5766 9.51101 10.7291C9.14496 10.8816 8.75263 10.9601 8.35642 10.9601Z" fill="#3330E8"/>
</svg>
