<svg width="23" height="22" viewBox="0 0 23 22" fill="none" xmlns="http://www.w3.org/2000/svg">
<path d="M19.5282 3.22182C17.4506 1.14421 14.6882 0 11.75 0C8.81184 0 6.04942 1.14421 3.97182 3.22182C1.89421 5.29942 0.75 8.06184 0.75 11C0.75 13.9382 1.89421 16.7006 3.97182 18.7782C6.04942 20.8558 8.81184 22 11.75 22C14.6882 22 17.4506 20.8558 19.5282 18.7782C21.6058 16.7006 22.75 13.9382 22.75 11C22.75 8.06184 21.6058 5.29942 19.5282 3.22182ZM5.52406 18.4464C5.88728 15.321 8.57434 12.9081 11.75 12.9081C13.4241 12.9081 14.9983 13.5603 16.1825 14.7443C17.1829 15.7449 17.8138 17.0512 17.9761 18.4462C16.2892 19.8589 14.1173 20.7109 11.75 20.7109C9.38269 20.7109 7.21092 19.8591 5.52406 18.4464ZM11.75 11.5804C9.90788 11.5804 8.40901 10.0815 8.40901 8.23943C8.40901 6.39714 9.90788 4.89844 11.75 4.89844C13.5921 4.89844 15.091 6.39714 15.091 8.23943C15.091 10.0815 13.5921 11.5804 11.75 11.5804ZM19.0856 17.3565C18.7571 16.0322 18.0721 14.8111 17.0939 13.8329C16.3017 13.0407 15.3644 12.4463 14.3422 12.0739C15.571 11.2405 16.3801 9.83263 16.3801 8.23943C16.3801 5.68648 14.3029 3.60938 11.75 3.60938C9.19705 3.60938 7.11995 5.68648 7.11995 8.23943C7.11995 9.83347 7.92964 11.2419 9.15945 12.0751C8.21901 12.4178 7.34872 12.9477 6.59996 13.6453C5.51567 14.655 4.76271 15.9426 4.41359 17.3555C2.93503 15.651 2.03906 13.4282 2.03906 11C2.03906 5.64536 6.39536 1.28906 11.75 1.28906C17.1046 1.28906 21.4609 5.64536 21.4609 11C21.4609 13.4287 20.5646 15.652 19.0856 17.3565Z" fill="#939393"/>
</svg>
