<svg width="73" height="73" viewBox="0 0 73 73" fill="none" xmlns="http://www.w3.org/2000/svg">
<path d="M36.5006 6.0835C19.7107 6.0835 6.08398 19.7102 6.08398 36.5002C6.08398 53.2902 19.7107 66.9168 36.5006 66.9168C53.2906 66.9168 66.9173 53.2902 66.9173 36.5002C66.9173 19.7102 53.2906 6.0835 36.5006 6.0835ZM28.2577 49.5489L17.3382 38.6293C16.1519 37.4431 16.1519 35.5268 17.3382 34.3406C18.5244 33.1543 20.4407 33.1543 21.6269 34.3406L30.4173 43.1006L51.344 22.1739C52.5302 20.9877 54.4465 20.9877 55.6327 22.1739C56.819 23.3602 56.819 25.2764 55.6327 26.4627L32.5465 49.5489C31.3906 50.7352 29.444 50.7352 28.2577 49.5489Z" fill="#00D880"/>
</svg>
