<svg width="20" height="20" viewBox="0 0 20 20" fill="none" xmlns="http://www.w3.org/2000/svg">
<path d="M10 5C10.3816 5 10.625 5.185 10.625 5.3125C10.625 5.39538 10.6579 5.47487 10.7165 5.53347C10.7751 5.59208 10.8546 5.625 10.9375 5.625C11.0204 5.625 11.0999 5.59208 11.1585 5.53347C11.2171 5.47487 11.25 5.39538 11.25 5.3125C11.25 4.86844 10.8566 4.50906 10.3125 4.40625V4.0625C10.3125 3.97962 10.2796 3.90013 10.221 3.84153C10.1624 3.78292 10.0829 3.75 10 3.75C9.91712 3.75 9.83763 3.78292 9.77903 3.84153C9.72042 3.90013 9.6875 3.97962 9.6875 4.0625V4.40625C9.14344 4.50844 8.75 4.86781 8.75 5.3125C8.75 5.83812 9.29906 6.25 10 6.25C10.3816 6.25 10.625 6.435 10.625 6.5625C10.625 6.69 10.3816 6.875 10 6.875C9.61844 6.875 9.375 6.69 9.375 6.5625C9.375 6.47962 9.34208 6.40013 9.28347 6.34153C9.22487 6.28292 9.14538 6.25 9.0625 6.25C8.97962 6.25 8.90013 6.28292 8.84153 6.34153C8.78292 6.40013 8.75 6.47962 8.75 6.5625C8.75 7.00656 9.14344 7.36594 9.6875 7.46875V7.8125C9.6875 7.89538 9.72042 7.97487 9.77903 8.03347C9.83763 8.09208 9.91712 8.125 10 8.125C10.0829 8.125 10.1624 8.09208 10.221 8.03347C10.2796 7.97487 10.3125 7.89538 10.3125 7.8125V7.46875C10.8566 7.36656 11.25 7.00719 11.25 6.5625C11.25 6.03688 10.7009 5.625 10 5.625C9.61844 5.625 9.375 5.44 9.375 5.3125C9.375 5.185 9.61844 5 10 5Z" fill="white"/>
<path d="M8.75 3.125H11.25C11.3329 3.125 11.4124 3.09208 11.471 3.03347C11.5296 2.97487 11.5625 2.89538 11.5625 2.8125C11.5625 2.72962 11.5296 2.65013 11.471 2.59153C11.4124 2.53292 11.3329 2.5 11.25 2.5H8.75C8.66712 2.5 8.58763 2.53292 8.52903 2.59153C8.47042 2.65013 8.4375 2.72962 8.4375 2.8125C8.4375 2.89538 8.47042 2.97487 8.52903 3.03347C8.58763 3.09208 8.66712 3.125 8.75 3.125Z" fill="white"/>
<path d="M8.75 9.375H11.25C11.3329 9.375 11.4124 9.34208 11.471 9.28347C11.5296 9.22487 11.5625 9.14538 11.5625 9.0625C11.5625 8.97962 11.5296 8.90013 11.471 8.84153C11.4124 8.78292 11.3329 8.75 11.25 8.75H8.75C8.66712 8.75 8.58763 8.78292 8.52903 8.84153C8.47042 8.90013 8.4375 8.97962 8.4375 9.0625C8.4375 9.14538 8.47042 9.22487 8.52903 9.28347C8.58763 9.34208 8.66712 9.375 8.75 9.375Z" fill="white"/>
<path d="M6.25 13.125H13.75C13.8329 13.125 13.9124 13.0921 13.971 13.0335C14.0296 12.9749 14.0625 12.8954 14.0625 12.8125C14.0625 12.7296 14.0296 12.6501 13.971 12.5915C13.9124 12.5329 13.8329 12.5 13.75 12.5H6.25C6.16712 12.5 6.08763 12.5329 6.02903 12.5915C5.97042 12.6501 5.9375 12.7296 5.9375 12.8125C5.9375 12.8954 5.97042 12.9749 6.02903 13.0335C6.08763 13.0921 6.16712 13.125 6.25 13.125Z" fill="white"/>
<path d="M6.25 11.875H13.75C13.8329 11.875 13.9124 11.8421 13.971 11.7835C14.0296 11.7249 14.0625 11.6454 14.0625 11.5625C14.0625 11.4796 14.0296 11.4001 13.971 11.3415C13.9124 11.2829 13.8329 11.25 13.75 11.25H6.25C6.16712 11.25 6.08763 11.2829 6.02903 11.3415C5.97042 11.4001 5.9375 11.4796 5.9375 11.5625C5.9375 11.6454 5.97042 11.7249 6.02903 11.7835C6.08763 11.8421 6.16712 11.875 6.25 11.875Z" fill="white"/>
<path d="M12.5 13.75H6.25C6.16712 13.75 6.08763 13.7829 6.02903 13.8415C5.97042 13.9001 5.9375 13.9796 5.9375 14.0625C5.9375 14.1454 5.97042 14.2249 6.02903 14.2835C6.08763 14.3421 6.16712 14.375 6.25 14.375H12.5C12.5829 14.375 12.6624 14.3421 12.721 14.2835C12.7796 14.2249 12.8125 14.1454 12.8125 14.0625C12.8125 13.9796 12.7796 13.9001 12.721 13.8415C12.6624 13.7829 12.5829 13.75 12.5 13.75Z" fill="white"/>
<path d="M12.5 15H6.25C6.16712 15 6.08763 15.0329 6.02903 15.0915C5.97042 15.1501 5.9375 15.2296 5.9375 15.3125C5.9375 15.3954 5.97042 15.4749 6.02903 15.5335C6.08763 15.5921 6.16712 15.625 6.25 15.625H12.5C12.5829 15.625 12.6624 15.5921 12.721 15.5335C12.7796 15.4749 12.8125 15.3954 12.8125 15.3125C12.8125 15.2296 12.7796 15.1501 12.721 15.0915C12.6624 15.0329 12.5829 15 12.5 15Z" fill="white"/>
<path d="M12.5 9.375H12.8125C12.8954 9.375 12.9749 9.34208 13.0335 9.28347C13.0921 9.22487 13.125 9.14538 13.125 9.0625C13.125 8.97962 13.0921 8.90013 13.0335 8.84153C12.9749 8.78292 12.8954 8.75 12.8125 8.75H12.5C12.4171 8.75 12.3376 8.78292 12.279 8.84153C12.2204 8.90013 12.1875 8.97962 12.1875 9.0625C12.1875 9.14538 12.2204 9.22487 12.279 9.28347C12.3376 9.34208 12.4171 9.375 12.5 9.375Z" fill="white"/>
<path d="M7.1875 9.375H7.5C7.58288 9.375 7.66237 9.34208 7.72097 9.28347C7.77958 9.22487 7.8125 9.14538 7.8125 9.0625C7.8125 8.97962 7.77958 8.90013 7.72097 8.84153C7.66237 8.78292 7.58288 8.75 7.5 8.75H7.1875C7.10462 8.75 7.02513 8.78292 6.96653 8.84153C6.90792 8.90013 6.875 8.97962 6.875 9.0625C6.875 9.14538 6.90792 9.22487 6.96653 9.28347C7.02513 9.34208 7.10462 9.375 7.1875 9.375Z" fill="white"/>
<path d="M12.5 3.125H12.8125C12.8954 3.125 12.9749 3.09208 13.0335 3.03347C13.0921 2.97487 13.125 2.89538 13.125 2.8125C13.125 2.72962 13.0921 2.65013 13.0335 2.59153C12.9749 2.53292 12.8954 2.5 12.8125 2.5H12.5C12.4171 2.5 12.3376 2.53292 12.279 2.59153C12.2204 2.65013 12.1875 2.72962 12.1875 2.8125C12.1875 2.89538 12.2204 2.97487 12.279 3.03347C12.3376 3.09208 12.4171 3.125 12.5 3.125Z" fill="white"/>
<path d="M7.1875 3.125H7.5C7.58288 3.125 7.66237 3.09208 7.72097 3.03347C7.77958 2.97487 7.8125 2.89538 7.8125 2.8125C7.8125 2.72962 7.77958 2.65013 7.72097 2.59153C7.66237 2.53292 7.58288 2.5 7.5 2.5H7.1875C7.10462 2.5 7.02513 2.53292 6.96653 2.59153C6.90792 2.65013 6.875 2.72962 6.875 2.8125C6.875 2.89538 6.90792 2.97487 6.96653 3.03347C7.02513 3.09208 7.10462 3.125 7.1875 3.125Z" fill="white"/>
<path d="M16.5625 13.1406V7.5H18.75C18.8329 7.5 18.9124 7.46708 18.971 7.40847C19.0296 7.34987 19.0625 7.27038 19.0625 7.1875V2.1875C19.0625 1.98231 19.0221 1.77913 18.9436 1.58956C18.865 1.39999 18.7499 1.22774 18.6049 1.08265C18.4598 0.937554 18.2875 0.822461 18.0979 0.743938C17.9084 0.665415 17.7052 0.625 17.5 0.625H5C4.5856 0.625 4.18817 0.78962 3.89515 1.08265C3.60212 1.37567 3.4375 1.7731 3.4375 2.1875V19.0625C3.43727 19.1243 3.45561 19.1848 3.49016 19.236C3.52471 19.2873 3.57386 19.327 3.63125 19.35C3.66833 19.3675 3.70901 19.3761 3.75 19.375C3.83302 19.3752 3.91277 19.3427 3.97188 19.2844L5 18.2531L6.02813 19.2844C6.08713 19.3429 6.16688 19.3758 6.25 19.3758C6.33312 19.3758 6.41287 19.3429 6.47188 19.2844L7.5 18.2531L8.52813 19.2844C8.58713 19.3429 8.66688 19.3758 8.75 19.3758C8.83312 19.3758 8.91287 19.3429 8.97188 19.2844L10 18.2531L11.0281 19.2844C11.0871 19.3429 11.1669 19.3758 11.25 19.3758C11.3331 19.3758 11.4129 19.3429 11.4719 19.2844L12.5 18.2531L13.5281 19.2844C13.5871 19.3429 13.6669 19.3758 13.75 19.3758C13.8331 19.3758 13.9129 19.3429 13.9719 19.2844L14.4531 18.8031C14.8439 19.0791 15.2928 19.2617 15.7653 19.3368C16.2378 19.4119 16.7212 19.3775 17.1783 19.2363C17.6354 19.0951 18.054 18.8508 18.4018 18.5223C18.7496 18.1937 19.0173 17.7898 19.1843 17.3414C19.3513 16.8931 19.4132 16.4124 19.3651 15.9364C19.317 15.4604 19.1602 15.0018 18.9069 14.596C18.6536 14.1901 18.3105 13.8478 17.9041 13.5955C17.4976 13.3432 17.0386 13.1876 16.5625 13.1406ZM16.5625 2.1875C16.5625 1.93886 16.6613 1.7004 16.8371 1.52459C17.0129 1.34877 17.2514 1.25 17.5 1.25C17.7486 1.25 17.9871 1.34877 18.1629 1.52459C18.3387 1.7004 18.4375 1.93886 18.4375 2.1875V6.875H16.5625V2.1875ZM13.75 18.6219L12.7219 17.5906C12.6629 17.5321 12.5831 17.4992 12.5 17.4992C12.4169 17.4992 12.3371 17.5321 12.2781 17.5906L11.25 18.6219L10.2219 17.5906C10.1629 17.5321 10.0831 17.4992 10 17.4992C9.91688 17.4992 9.83713 17.5321 9.77813 17.5906L8.75 18.6219L7.72188 17.5906C7.66287 17.5321 7.58312 17.4992 7.5 17.4992C7.41688 17.4992 7.33713 17.5321 7.27813 17.5906L6.25 18.6219L5.22188 17.5906C5.16287 17.5321 5.08312 17.4992 5 17.4992C4.91688 17.4992 4.83713 17.5321 4.77813 17.5906L4.0625 18.3094V2.1875C4.06324 1.93909 4.16225 1.70106 4.33791 1.52541C4.51356 1.34975 4.75159 1.25074 5 1.25H16.2594C16.0516 1.51844 15.9384 1.84805 15.9375 2.1875V13.1406C15.3565 13.1979 14.8033 13.417 14.3408 13.7732C13.8782 14.1293 13.525 14.6082 13.3211 15.1552C13.1173 15.7022 13.0711 16.2955 13.1878 16.8674C13.3045 17.4394 13.5794 17.9672 13.9813 18.3906L13.75 18.6219ZM16.25 18.75C15.7555 18.75 15.2722 18.6034 14.8611 18.3287C14.45 18.054 14.1295 17.6635 13.9403 17.2067C13.7511 16.7499 13.7016 16.2472 13.798 15.7623C13.8945 15.2773 14.1326 14.8319 14.4822 14.4822C14.8319 14.1326 15.2773 13.8945 15.7623 13.798C16.2472 13.7016 16.7499 13.7511 17.2067 13.9403C17.6635 14.1295 18.054 14.45 18.3287 14.8611C18.6034 15.2722 18.75 15.7555 18.75 16.25C18.7491 16.9128 18.4854 17.5481 18.0168 18.0168C17.5481 18.4854 16.9128 18.7491 16.25 18.75Z" fill="white"/>
<path d="M17.9256 15.1987C17.867 15.1401 17.7875 15.1072 17.7047 15.1072C17.6218 15.1072 17.5423 15.1401 17.4837 15.1987L15.9369 16.7455L15.2737 16.0824C15.2148 16.0255 15.1359 15.994 15.0539 15.9947C14.972 15.9954 14.8936 16.0283 14.8357 16.0862C14.7777 16.1442 14.7449 16.2225 14.7442 16.3045C14.7434 16.3864 14.7749 16.4654 14.8319 16.5243L15.7159 17.4084C15.7745 17.4669 15.854 17.4999 15.9369 17.4999C16.0197 17.4999 16.0992 17.4669 16.1578 17.4084L17.9256 15.6405C17.9842 15.5819 18.0171 15.5025 18.0171 15.4196C18.0171 15.3367 17.9842 15.2573 17.9256 15.1987Z" fill="white"/>
</svg>
