<svg width="17" height="17" viewBox="0 0 17 17" fill="none" xmlns="http://www.w3.org/2000/svg">
<path d="M8.5 4.25C8.82433 4.25 9.03125 4.40725 9.03125 4.51562C9.03125 4.58607 9.05924 4.65364 9.10905 4.70345C9.15886 4.75326 9.22643 4.78125 9.29688 4.78125C9.36732 4.78125 9.43489 4.75326 9.4847 4.70345C9.53451 4.65364 9.5625 4.58607 9.5625 4.51562C9.5625 4.13817 9.22808 3.8327 8.76562 3.74531V3.45312C8.76562 3.38268 8.73764 3.31511 8.68783 3.2653C8.63801 3.21549 8.57045 3.1875 8.5 3.1875C8.42955 3.1875 8.36199 3.21549 8.31217 3.2653C8.26236 3.31511 8.23438 3.38268 8.23438 3.45312V3.74531C7.77192 3.83217 7.4375 4.13764 7.4375 4.51562C7.4375 4.96241 7.9042 5.3125 8.5 5.3125C8.82433 5.3125 9.03125 5.46975 9.03125 5.57812C9.03125 5.6865 8.82433 5.84375 8.5 5.84375C8.17567 5.84375 7.96875 5.6865 7.96875 5.57812C7.96875 5.50768 7.94076 5.44011 7.89095 5.3903C7.84114 5.34049 7.77357 5.3125 7.70312 5.3125C7.63268 5.3125 7.56511 5.34049 7.5153 5.3903C7.46549 5.44011 7.4375 5.50768 7.4375 5.57812C7.4375 5.95558 7.77192 6.26105 8.23438 6.34844V6.64062C8.23438 6.71107 8.26236 6.77864 8.31217 6.82845C8.36199 6.87826 8.42955 6.90625 8.5 6.90625C8.57045 6.90625 8.63801 6.87826 8.68783 6.82845C8.73764 6.77864 8.76562 6.71107 8.76562 6.64062V6.34844C9.22808 6.26158 9.5625 5.95611 9.5625 5.57812C9.5625 5.13134 9.0958 4.78125 8.5 4.78125C8.17567 4.78125 7.96875 4.624 7.96875 4.51562C7.96875 4.40725 8.17567 4.25 8.5 4.25Z" fill="#474747"/>
<path d="M7.4375 2.65625H9.5625C9.63295 2.65625 9.70051 2.62826 9.75033 2.57845C9.80014 2.52864 9.82812 2.46107 9.82812 2.39062C9.82812 2.32018 9.80014 2.25261 9.75033 2.2028C9.70051 2.15299 9.63295 2.125 9.5625 2.125H7.4375C7.36705 2.125 7.29949 2.15299 7.24967 2.2028C7.19986 2.25261 7.17188 2.32018 7.17188 2.39062C7.17188 2.46107 7.19986 2.52864 7.24967 2.57845C7.29949 2.62826 7.36705 2.65625 7.4375 2.65625Z" fill="#474747"/>
<path d="M7.4375 7.96875H9.5625C9.63295 7.96875 9.70051 7.94076 9.75033 7.89095C9.80014 7.84114 9.82812 7.77357 9.82812 7.70312C9.82812 7.63268 9.80014 7.56511 9.75033 7.5153C9.70051 7.46549 9.63295 7.4375 9.5625 7.4375H7.4375C7.36705 7.4375 7.29949 7.46549 7.24967 7.5153C7.19986 7.56511 7.17188 7.63268 7.17188 7.70312C7.17188 7.77357 7.19986 7.84114 7.24967 7.89095C7.29949 7.94076 7.36705 7.96875 7.4375 7.96875Z" fill="#474747"/>
<path d="M5.3125 11.1562H11.6875C11.7579 11.1562 11.8255 11.1283 11.8753 11.0785C11.9251 11.0286 11.9531 10.9611 11.9531 10.8906C11.9531 10.8202 11.9251 10.7526 11.8753 10.7028C11.8255 10.653 11.7579 10.625 11.6875 10.625H5.3125C5.24205 10.625 5.17449 10.653 5.12467 10.7028C5.07486 10.7526 5.04688 10.8202 5.04688 10.8906C5.04688 10.9611 5.07486 11.0286 5.12467 11.0785C5.17449 11.1283 5.24205 11.1562 5.3125 11.1562Z" fill="#474747"/>
<path d="M5.3125 10.0938H11.6875C11.7579 10.0938 11.8255 10.0658 11.8753 10.016C11.9251 9.96614 11.9531 9.89857 11.9531 9.82812C11.9531 9.75768 11.9251 9.69011 11.8753 9.6403C11.8255 9.59049 11.7579 9.5625 11.6875 9.5625H5.3125C5.24205 9.5625 5.17449 9.59049 5.12467 9.6403C5.07486 9.69011 5.04688 9.75768 5.04688 9.82812C5.04688 9.89857 5.07486 9.96614 5.12467 10.016C5.17449 10.0658 5.24205 10.0938 5.3125 10.0938Z" fill="#474747"/>
<path d="M10.625 11.6875H5.3125C5.24205 11.6875 5.17449 11.7155 5.12467 11.7653C5.07486 11.8151 5.04688 11.8827 5.04688 11.9531C5.04688 12.0236 5.07486 12.0911 5.12467 12.141C5.17449 12.1908 5.24205 12.2188 5.3125 12.2188H10.625C10.6954 12.2188 10.763 12.1908 10.8128 12.141C10.8626 12.0911 10.8906 12.0236 10.8906 11.9531C10.8906 11.8827 10.8626 11.8151 10.8128 11.7653C10.763 11.7155 10.6954 11.6875 10.625 11.6875Z" fill="#474747"/>
<path d="M10.625 12.75H5.3125C5.24205 12.75 5.17449 12.778 5.12467 12.8278C5.07486 12.8776 5.04688 12.9452 5.04688 13.0156C5.04688 13.0861 5.07486 13.1536 5.12467 13.2035C5.17449 13.2533 5.24205 13.2812 5.3125 13.2812H10.625C10.6954 13.2812 10.763 13.2533 10.8128 13.2035C10.8626 13.1536 10.8906 13.0861 10.8906 13.0156C10.8906 12.9452 10.8626 12.8776 10.8128 12.8278C10.763 12.778 10.6954 12.75 10.625 12.75Z" fill="#474747"/>
<path d="M10.625 7.96875H10.8906C10.9611 7.96875 11.0286 7.94076 11.0785 7.89095C11.1283 7.84114 11.1562 7.77357 11.1562 7.70312C11.1562 7.63268 11.1283 7.56511 11.0785 7.5153C11.0286 7.46549 10.9611 7.4375 10.8906 7.4375H10.625C10.5546 7.4375 10.487 7.46549 10.4372 7.5153C10.3874 7.56511 10.3594 7.63268 10.3594 7.70312C10.3594 7.77357 10.3874 7.84114 10.4372 7.89095C10.487 7.94076 10.5546 7.96875 10.625 7.96875Z" fill="#474747"/>
<path d="M6.10938 7.96875H6.375C6.44545 7.96875 6.51301 7.94076 6.56283 7.89095C6.61264 7.84114 6.64062 7.77357 6.64062 7.70312C6.64062 7.63268 6.61264 7.56511 6.56283 7.5153C6.51301 7.46549 6.44545 7.4375 6.375 7.4375H6.10938C6.03893 7.4375 5.97136 7.46549 5.92155 7.5153C5.87174 7.56511 5.84375 7.63268 5.84375 7.70312C5.84375 7.77357 5.87174 7.84114 5.92155 7.89095C5.97136 7.94076 6.03893 7.96875 6.10938 7.96875Z" fill="#474747"/>
<path d="M10.625 2.65625H10.8906C10.9611 2.65625 11.0286 2.62826 11.0785 2.57845C11.1283 2.52864 11.1562 2.46107 11.1562 2.39062C11.1562 2.32018 11.1283 2.25261 11.0785 2.2028C11.0286 2.15299 10.9611 2.125 10.8906 2.125H10.625C10.5546 2.125 10.487 2.15299 10.4372 2.2028C10.3874 2.25261 10.3594 2.32018 10.3594 2.39062C10.3594 2.46107 10.3874 2.52864 10.4372 2.57845C10.487 2.62826 10.5546 2.65625 10.625 2.65625Z" fill="#474747"/>
<path d="M6.10938 2.65625H6.375C6.44545 2.65625 6.51301 2.62826 6.56283 2.57845C6.61264 2.52864 6.64062 2.46107 6.64062 2.39062C6.64062 2.32018 6.61264 2.25261 6.56283 2.2028C6.51301 2.15299 6.44545 2.125 6.375 2.125H6.10938C6.03893 2.125 5.97136 2.15299 5.92155 2.2028C5.87174 2.25261 5.84375 2.32018 5.84375 2.39062C5.84375 2.46107 5.87174 2.52864 5.92155 2.57845C5.97136 2.62826 6.03893 2.65625 6.10938 2.65625Z" fill="#474747"/>
<path d="M14.0781 11.1695V6.375H15.9375C16.0079 6.375 16.0755 6.34701 16.1253 6.2972C16.1751 6.24739 16.2031 6.17982 16.2031 6.10938V1.85938C16.2031 1.68496 16.1688 1.51226 16.102 1.35112C16.0353 1.18999 15.9375 1.04358 15.8141 0.920249C15.6908 0.796921 15.5444 0.699092 15.3833 0.632348C15.2221 0.565603 15.0494 0.53125 14.875 0.53125H4.25C3.89776 0.53125 3.55995 0.671177 3.31088 0.920249C3.0618 1.16932 2.92188 1.50713 2.92188 1.85938V16.2031C2.92168 16.2557 2.93727 16.3071 2.96664 16.3506C2.996 16.3942 3.03779 16.428 3.08656 16.4475C3.11808 16.4624 3.15266 16.4697 3.1875 16.4688C3.25807 16.469 3.32585 16.4413 3.3761 16.3917L4.25 15.5152L5.12391 16.3917C5.17406 16.4415 5.24185 16.4694 5.3125 16.4694C5.38315 16.4694 5.45094 16.4415 5.5011 16.3917L6.375 15.5152L7.24891 16.3917C7.29906 16.4415 7.36685 16.4694 7.4375 16.4694C7.50815 16.4694 7.57594 16.4415 7.6261 16.3917L8.5 15.5152L9.37391 16.3917C9.42406 16.4415 9.49185 16.4694 9.5625 16.4694C9.63315 16.4694 9.70094 16.4415 9.7511 16.3917L10.625 15.5152L11.4989 16.3917C11.5491 16.4415 11.6168 16.4694 11.6875 16.4694C11.7582 16.4694 11.8259 16.4415 11.8761 16.3917L12.2852 15.9827C12.6173 16.2172 12.9989 16.3724 13.4005 16.4363C13.8021 16.5001 14.2131 16.4709 14.6016 16.3509C14.9901 16.2308 15.3459 16.0232 15.6415 15.7439C15.9372 15.4647 16.1647 15.1213 16.3067 14.7402C16.4486 14.3591 16.5012 13.9506 16.4603 13.546C16.4194 13.1414 16.2862 12.7516 16.0709 12.4066C15.8556 12.0616 15.5639 11.7707 15.2184 11.5562C14.873 11.3417 14.4828 11.2094 14.0781 11.1695ZM14.0781 1.85938C14.0781 1.64803 14.1621 1.44534 14.3115 1.2959C14.461 1.14646 14.6637 1.0625 14.875 1.0625C15.0863 1.0625 15.289 1.14646 15.4385 1.2959C15.5879 1.44534 15.6719 1.64803 15.6719 1.85938V5.84375H14.0781V1.85938ZM11.6875 15.8286L10.8136 14.952C10.7634 14.9023 10.6957 14.8743 10.625 14.8743C10.5543 14.8743 10.4866 14.9023 10.4364 14.952L9.5625 15.8286L8.6886 14.952C8.63844 14.9023 8.57065 14.8743 8.5 14.8743C8.42935 14.8743 8.36156 14.9023 8.31141 14.952L7.4375 15.8286L6.5636 14.952C6.51344 14.9023 6.44565 14.8743 6.375 14.8743C6.30435 14.8743 6.23656 14.9023 6.18641 14.952L5.3125 15.8286L4.4386 14.952C4.38844 14.9023 4.32065 14.8743 4.25 14.8743C4.17935 14.8743 4.11156 14.9023 4.06141 14.952L3.45313 15.563V1.85938C3.45376 1.64822 3.53792 1.4459 3.68722 1.2966C3.83653 1.14729 4.03885 1.06313 4.25 1.0625H13.8205C13.6439 1.29068 13.5477 1.57084 13.5469 1.85938V11.1695C13.0531 11.2182 12.5828 11.4045 12.1897 11.7072C11.7965 12.0099 11.4962 12.4169 11.323 12.8819C11.1497 13.3469 11.1104 13.8511 11.2096 14.3373C11.3088 14.8235 11.5425 15.2721 11.8841 15.632L11.6875 15.8286ZM13.8125 15.9375C13.3922 15.9375 12.9814 15.8129 12.6319 15.5794C12.2825 15.3459 12.0101 15.014 11.8493 14.6257C11.6884 14.2374 11.6463 13.8101 11.7283 13.3979C11.8103 12.9857 12.0127 12.6071 12.3099 12.3099C12.6071 12.0127 12.9857 11.8103 13.3979 11.7283C13.8101 11.6463 14.2374 11.6884 14.6257 11.8493C15.014 12.0101 15.3459 12.2825 15.5794 12.6319C15.8129 12.9814 15.9375 13.3922 15.9375 13.8125C15.9367 14.3758 15.7126 14.9159 15.3142 15.3142C14.9159 15.7126 14.3758 15.9367 13.8125 15.9375Z" fill="#474747"/>
<path d="M15.2375 12.9188C15.1876 12.869 15.1201 12.8411 15.0497 12.8411C14.9792 12.8411 14.9117 12.869 14.8619 12.9188L13.547 14.2337L12.9834 13.67C12.9333 13.6216 12.8662 13.5949 12.7965 13.5955C12.7269 13.5961 12.6603 13.624 12.611 13.6733C12.5618 13.7225 12.5338 13.7891 12.5332 13.8588C12.5326 13.9284 12.5594 13.9955 12.6078 14.0456L13.3592 14.7971C13.409 14.8469 13.4766 14.8748 13.547 14.8748C13.6175 14.8748 13.685 14.8469 13.7348 14.7971L15.2375 13.2944C15.2873 13.2446 15.3152 13.1771 15.3152 13.1066C15.3152 13.0362 15.2873 12.9686 15.2375 12.9188Z" fill="#474747"/>
</svg>
