<svg width="28" height="28" viewBox="0 0 28 28" fill="none" xmlns="http://www.w3.org/2000/svg">
<mask id="mask0_499_16853" style="mask-type:alpha" maskUnits="userSpaceOnUse" x="0" y="0" width="28" height="28">
<rect width="28" height="28" fill="#D9D9D9"/>
</mask>
<g mask="url(#mask0_499_16853)">
<path d="M12.8327 22.1667H15.166V17.2959L17.0327 19.1625L18.666 17.5L13.9993 12.8334L9.33268 17.5L10.9952 19.1334L12.8327 17.2959V22.1667ZM6.99935 25.6667C6.35768 25.6667 5.80838 25.4382 5.35143 24.9813C4.89449 24.5243 4.66602 23.975 4.66602 23.3334V4.66671C4.66602 4.02504 4.89449 3.47574 5.35143 3.01879C5.80838 2.56185 6.35768 2.33337 6.99935 2.33337H16.3327L23.3327 9.33337V23.3334C23.3327 23.975 23.1042 24.5243 22.6473 24.9813C22.1903 25.4382 21.641 25.6667 20.9993 25.6667H6.99935ZM15.166 10.5V4.66671H6.99935V23.3334H20.9993V10.5H15.166Z" fill="#979797"/>
</g>
</svg>
